<?xml version="1.0" encoding="utf-8"?>
<!-- Generator: Adobe Illustrator 23.0.6, SVG Export Plug-In . SVG Version: 6.00 Build 0)  -->
<svg version="1.1" id="Layer_1" xmlns="http://www.w3.org/2000/svg" xmlns:xlink="http://www.w3.org/1999/xlink" x="0px" y="0px"
	 width="158.00954px" height="338.0506px" viewBox="0 0 158.00954 338.0506" enable-background="new 0 0 158.00954 338.0506"
	 xml:space="preserve">
<g>
	<g>
		<path fill="#FFE9CA" d="M79.65382,338.05057L79.65382,338.05057c-3.69662-0.01056-6.71266-3.04376-6.70194-6.74072
			L72.5875,138.66853c0.01057-3.69662,3.0441-6.71252,6.74072-6.70195l0,0c3.69708,0.01041,6.71298,3.04393,6.70226,6.74088
			l0.36438,192.64133C86.38428,335.04541,83.35076,338.06128,79.65382,338.05057z"/>
		<path fill="#8B4367" d="M0.19954,80.57703c-1.41132,18.96233,4.66708,38.8138,18.13758,52.23408
			c11.31403,11.2722,28.01397,18.3678,43.29903,22.28769c47.83429,12.26703,91.1161-31.9262,96.01451-77.16151
			c1.75696-16.22755-3.02362-32.70899-12.45091-45.98381C133.91832,16.06801,116.3319,6.03288,97.45721,2.08909
			C87.32528-0.02774,76.7815-0.86913,66.63077,1.15653C29.76932,8.51202,2.92075,44.00825,0.19954,80.57703z"/>
		<g>
			<path fill="#FFE9CA" d="M112.70313,148.22249c0.18714-0.21484,0.39114-0.41154,0.57453-0.63005
				c-0.21801,0.25951-0.46519,0.49406-0.73053,0.71338C112.59885,148.27727,112.65142,148.25104,112.70313,148.22249z"/>
			<path fill="#FFB118" d="M133.95242,59.64738c-5.01718-24.15994-21.59246-43.86366-46.6034-48.22626
				c-14.57624-2.54269-32.83095-3.46464-48.11838,1.34184C17.03061,27.78715,2.18545,53.88955,0.19954,80.57703
				c-1.41132,18.96233,4.66708,38.8138,18.13758,52.23408c11.31403,11.2722,28.01397,18.3678,43.29903,22.28769
				c17.2105,4.41354,34.84032,1.43225,48.65316-6.30003c-4.89885,1.63306-12.85012,1.5412-16.73115,1.37671
				c-11.78103-0.50041-23.6107-2.60432-34.56798-7.04433c-13.41871-5.43735-26.03372-11.98994-33.70895-24.84764
				c-2.25096-3.77058-3.92557-7.71764-5.06212-11.75158c-7.99516-28.37154,8.88201-61.96039,38.27382-68.66254
				c20.39056-4.65042,44.69537-0.53101,56.44173,18.40168c8.55164,13.78381,8.59604,33.83424-4.15806,45.40367
				c-11.95,10.84059-33.6075,13.07078-46.49574,2.64235C48.0669,91.19714,52.35446,60.47986,76.91212,63.62848
				c7.84181,1.00525,15.57571,6.17798,17.11486,14.30544c1.48041,7.81953-5.23556,19.24947-14.24501,12.90324
				c-1.74722-1.23103-2.85618-3.32199-2.89496-5.45953c-0.06999-3.90008,6.25349-9.40018,0.18726-11.63385
				c-1.90976-0.703-4.02739-0.31876-6.02438,0.07307c-7.70607,1.51297-7.43298,14.86119-3.64223,19.7939
				c3.45998,4.50272,9.28175,6.54382,14.91348,7.27129c5.65086,0.73043,11.75809,0.26222,16.4334-2.99513
				c4.21999-2.9405,6.78136-7.89695,7.4922-12.99076c1.76057-12.61102-5.84093-25.4304-17.01466-31.06462
				c-11.14309-5.61829-25.07668-4.46998-35.87786,1.78091c-6.00681,3.47639-11.2014,8.49707-14.37541,14.66924
				c-6.40853,12.46398-3.66148,27.14664,4.89754,37.89619c16.39835,20.59555,48.02678,25.70447,70.18266,11.56747
				C133.86934,107.10505,138.43602,81.23672,133.95242,59.64738z"/>
		</g>
	</g>
</g>
</svg>
