<?xml version="1.0" encoding="utf-8"?>
<!-- Generator: Adobe Illustrator 23.0.6, SVG Export Plug-In . SVG Version: 6.00 Build 0)  -->
<svg version="1.1" id="Layer_1" xmlns="http://www.w3.org/2000/svg" xmlns:xlink="http://www.w3.org/1999/xlink" x="0px" y="0px"
	 width="828.06439px" height="263.26965px" viewBox="0 0 828.06439 263.26965" enable-background="new 0 0 828.06439 263.26965"
	 xml:space="preserve">
<g>
	<g>
		<g>
			<path fill="#543864" d="M8.35922,6.55462c38.38898,48.03613,85.63673,88.7126,138.42761,120.19248
				c52.77945,31.47306,111.04166,53.8344,171.40869,65.397c59.77158,11.44852,121.27963,11.97124,181.21591,1.38997
				c59.36139-10.47978,116.83246-31.44655,169.20483-61.2587c52.35504-29.80232,99.72314-68.5202,138.70392-114.49494
				c4.60333-5.42927,9.08276-10.96097,13.45435-16.57833c0.64838-0.83311-0.74854-1.6924-1.39026-0.86777
				c-37.04071,47.59588-82.7348,88.2-133.93695,120.02017c-50.90234,31.63392-107.15692,54.64394-165.70557,67.48826
				c-58.86472,12.91367-119.77298,15.1683-179.4054,6.40036c-60.80734-8.94069-119.94614-28.92044-173.94821-58.22449
				C112.7032,106.88666,64.00803,68.48676,23.78421,22.47814c-4.87338-5.57425-9.61085-11.26419-14.23316-17.04808
				C8.89178,4.60512,7.70427,5.73509,8.35922,6.55462L8.35922,6.55462z"/>
		</g>
	</g>
	<g>
		<path fill="#FF6464" d="M427.63724,193.78604c-18.11221-1.35744-31.1839-0.16696-47.37421,0.54225
			c-0.61871,0.0271-1.22998,0.2048-1.76138,0.52287c-0.01248,0.00749-0.02499,0.01498-0.03751,0.02248
			c-1.63647,0.98047-2.28387,3.03038-1.50299,4.77098c8.91559,19.87297,17.44565,39.15759,26.48227,59.21512
			c0.88022,1.9537,2.50516,3.54681,4.55859,4.15933c3.96695,1.18329,6.39441-2.05042,8.1922-4.95984
			c9.05057-14.64709,16.39679-30.34639,21.84305-46.68005c1.08936-3.26695,5.44397-11.02071,4.23373-14.2448
			C440.61584,192.72481,432.33398,194.13802,427.63724,193.78604z"/>
	</g>
	<g>
		<path fill="#8B4367" d="M347.73083,191.70566c-17.58276-4.55414-30.65796-5.70528-46.71667-7.88417
			c-0.61368-0.08325-1.2468-0.017-1.82623,0.20158c-0.01364,0.00514-0.02728,0.0103-0.04092,0.01544
			c-1.78467,0.6741-2.78598,2.57635-2.32681,4.42801c5.24255,21.14093,10.21021,41.63434,15.53906,62.97838
			c0.51907,2.07904,1.83508,3.93552,3.74701,4.90315c3.69357,1.86935,6.65698-0.88156,8.94312-3.42525
			c11.50916-12.80585,21.52805-26.94998,29.78995-42.056c1.6525-3.02141,7.31555-9.87802,6.69748-13.26584
			C360.6915,192.96745,352.29034,192.8866,347.73083,191.70566z"/>
	</g>
	<g>
		<path fill="#8B4367" d="M127.83935,109.26713c-13.63891-11.99476-24.78957-18.9193-38.13949-28.1067
			c-0.51017-0.3511-1.10513-0.57751-1.72088-0.64376c-0.01449-0.00156-0.02898-0.00311-0.04347-0.00467
			c-1.89687-0.20327-3.64852,1.04292-4.07382,2.90263c-4.85584,21.23309-9.66498,41.76428-14.53539,63.21758
			c-0.47441,2.08968-0.13715,4.34016,1.13286,6.0661c2.45347,3.33427,6.33907,2.21559,9.52673,0.97641
			c16.04774-6.23863,31.369-14.34381,45.55592-24.09993c2.83756-1.95135,10.9844-5.51685,11.9607-8.8193
			C138.83784,116.23875,131.37614,112.37753,127.83935,109.26713z"/>
	</g>
	<g>
		<path fill="#8B4367" d="M588.65448,164.03532c-17.60242,4.47775-29.61548,9.76668-44.73816,15.59193
			c-0.57788,0.22261-1.10083,0.58563-1.50336,1.05627c-0.00946,0.01108-0.01892,0.02216-0.02838,0.03325
			c-1.23932,1.45033-1.20062,3.59969,0.09363,5.00124c14.77698,16.002,29.00122,31.56894,43.95166,47.70735
			c1.45624,1.57198,3.50372,2.56506,5.64539,2.49217c4.13721-0.14081,5.4093-3.97894,6.18756-7.30925
			c3.91821-16.76599,5.88574-33.98701,5.85028-51.20471c-0.00708-3.44377,1.65332-12.18028-0.52014-14.85153
			C600.62042,158.89856,593.21906,162.87416,588.65448,164.03532z"/>
	</g>
	<g>
		<path fill="#8B4367" d="M791.00732,30.37842c-13.94659,11.63562-22.50098,21.59093-33.62915,33.372
			c-0.42523,0.45021-0.7403,1.00336-0.90033,1.60164c-0.00372,0.01408-0.00751,0.02816-0.01129,0.04224
			c-0.49207,1.84317,0.4704,3.76537,2.24274,4.47116c20.23584,8.05824,39.78528,15.96256,60.23639,24.06901
			c1.99213,0.78962,4.2677,0.80188,6.16815-0.18809c3.67139-1.91246,3.16254-5.92375,2.42749-9.26386
			c-3.70081-16.8153-9.3576-33.19931-16.81989-48.71591c-1.49255-3.10352-3.76495-11.70118-6.87836-13.17294
			C799.5849,20.5807,794.62384,27.36111,791.00732,30.37842z"/>
	</g>
	<g>
		<path fill="#543864" d="M509.26364,187.11276c-18.15063,0.6693-31.00827,3.30898-47.01871,5.81789
			c-0.61185,0.09589-1.19949,0.34059-1.69214,0.7159c-0.0116,0.00883-0.02319,0.01767-0.03479,0.0265
			c-1.51703,1.15674-1.93195,3.26602-0.96198,4.90875c11.07455,18.75572,21.70041,36.96971,32.9158,55.89534
			c1.09244,1.84348,2.8848,3.24557,4.99371,3.62546c4.0741,0.73389,6.1261-2.75018,7.58847-5.84181
			c7.36206-15.56441,12.91309-31.98453,16.50537-48.82336c0.71851-3.36798,4.18195-11.5587,2.62-14.62785
			C522.04315,184.61189,513.9704,186.93918,509.26364,187.11276z"/>
	</g>
	<g>
		<path fill="#543864" d="M731.68518,85.1447c-15.42407,9.59127-25.27521,18.26546-37.92816,28.39124
			c-0.48352,0.38696-0.87219,0.89111-1.11353,1.46146c-0.00568,0.01343-0.01135,0.02685-0.01703,0.04028
			c-0.74268,1.75723-0.05579,3.79424,1.60168,4.73876c18.92432,10.78399,37.19012,21.32044,56.32104,32.182
			c1.86346,1.05798,4.11536,1.38539,6.1347,0.66826c3.90094-1.38538,3.9527-5.42848,3.68744-8.83823
			c-1.33551-17.16586-4.66791-34.17556-9.90857-50.57635c-1.04822-3.28037-2.1076-12.10994-4.98712-13.99884
			C741.53748,76.62979,735.68488,82.65752,731.68518,85.1447z"/>
	</g>
	<g>
		<path fill="#543864" d="M269.02863,175.15508c-16.66074-7.23283-29.3979-10.40315-44.92244-15.05264
			c-0.59328-0.17767-1.229-0.21068-1.83539-0.08485c-0.01427,0.00296-0.02853,0.00594-0.04282,0.0089
			c-1.86777,0.38838-3.15271,2.1118-2.98706,4.01231c1.89139,21.69899,3.61192,42.71559,5.55699,64.62863
			c0.18945,2.13446,1.20078,4.173,2.939,5.42618c3.35796,2.42093,6.71309,0.16429,9.36696-1.99295
			c13.36044-10.86043,25.45686-23.2746,35.96724-36.91214c2.1022-2.72769,8.76257-8.6203,8.67883-12.06302
			C281.63541,178.41689,273.349,177.03064,269.02863,175.15508z"/>
	</g>
	<g>
		<path fill="#543864" d="M63.2538,59.03261c-12.0173-13.61906-22.20563-21.89458-34.29029-32.69226
			c-0.46181-0.41263-1.02347-0.71227-1.62595-0.85565c-0.01418-0.00337-0.02836-0.00674-0.04254-0.01011
			c-1.85609-0.44087-3.75091,0.57445-4.40736,2.36568C15.39278,48.29143,8.03275,68.05219,0.49563,88.71996
			c-0.73416,2.01317-0.68342,4.28821,0.35879,6.16055c2.01337,3.61707,6.00904,2.99735,9.32752,2.17007
			c16.70639-4.16494,32.9275-10.27318,48.23155-18.1622c3.06101-1.57791,11.59245-4.08751,12.97745-7.24046
			C73.28526,67.33565,66.37009,62.56422,63.2538,59.03261z"/>
	</g>
	<g>
		<path fill="#FF6464" d="M196.23047,147.1976c-15.41689-9.60281-27.54985-14.61057-42.22252-21.49109
			c-0.56073-0.26293-1.18469-0.389-1.80299-0.35366c-0.01456,0.00083-0.0291,0.00167-0.04366,0.0025
			c-1.90457,0.10968-3.42883,1.62554-3.54428,3.52978c-1.31807,21.74133-2.70485,42.78261-4.00127,64.74356
			c-0.12628,2.13913,0.57446,4.30417,2.10963,5.79918c2.96571,2.88814,6.61607,1.14908,9.55815-0.59473
			c14.81145-8.77904,28.60092-19.2807,41.00137-31.22556c2.48024-2.38913,9.9343-7.23894,10.35739-10.65659
			C208.22101,152.2767,200.22832,149.68773,196.23047,147.1976z"/>
	</g>
	<g>
		<path fill="#FF6464" d="M663.625,129.95073c-16.47913,7.63757-27.31506,15.04491-41.10907,23.55112
			c-0.5271,0.32507-0.97443,0.77803-1.28351,1.31467c-0.00732,0.01263-0.01459,0.02527-0.02185,0.03789
			c-0.95154,1.65347-0.51837,3.75908,1.01154,4.89879c17.46698,13.01254,34.31073,25.69907,51.97333,38.81381
			c1.72046,1.27745,3.91559,1.87718,6.00732,1.4118c4.04083-0.89903,4.58557-4.90561,4.73834-8.32224
			c0.76904-17.20056-0.46295-34.48978-3.66327-51.40749c-0.64008-3.38376-0.6142-12.27661-3.2417-14.50275
			C674.44263,122.70161,667.89825,127.97017,663.625,129.95073z"/>
	</g>
</g>
</svg>
