<?xml version="1.0" encoding="utf-8"?>
<!-- Generator: Adobe Illustrator 23.0.6, SVG Export Plug-In . SVG Version: 6.00 Build 0)  -->
<svg version="1.1" id="Layer_1" xmlns="http://www.w3.org/2000/svg" xmlns:xlink="http://www.w3.org/1999/xlink" x="0px" y="0px"
	 width="416.40094px" height="125.00271px" viewBox="0 0 416.40094 125.00271" enable-background="new 0 0 416.40094 125.00271"
	 xml:space="preserve">
<g>
	<g>
		<g>
			<path fill="#EFE1E1" d="M54.61314,112.00532c-1.7236,0-3.46123-0.1572-5.18483-0.52213
				c-6.77087-1.4485-13.80562-7.25932-13.50245-15.18675c0.23861-6.32734,4.9378-11.76201,13.97124-16.14679
				c1.13129-0.55021,2.2738-1.08356,3.41912-1.59447c-9.55277,0.37616-19.13642,0.20773-28.69762-0.53336
				c-5.35887-0.40984-11.00688-1.0555-16.00363-3.92442c-4.98552-2.8633-9.53312-8.77518-8.45517-15.52922
				C0.81949,54.43604,3.607,50.59585,7.80652,48.0301c3.51176-2.14467,7.43336-3.14402,11.14443-3.98617
				c18.63113-4.21635,38.11284-5.73222,57.28294-4.5083c-6.59682-3.41912-12.86803-7.46144-18.76307-12.09887
				c-1.9594-1.54394-7.91619-6.2319-7.04597-12.55924c0.50809-3.71668,3.47246-7.05159,7.55127-8.50009
				c3.35175-1.17901,6.86071-1.04988,9.89524-0.83092c27.53545,1.97063,54.20349,13.00277,75.08877,31.06405
				c0.63443,0.32563,25.06796,15.14183,23.40613,31.73216c-0.92076,9.20187-9.47418,16.71945-25.42166,22.35062l0,0
				c-15.78468,5.57503-32.31043,9.41522-48.29161,13.12629c-8.05094,1.86958-16.10188,3.73914-24.08545,5.82767
				C64.45224,110.72526,59.58462,112.00532,54.61314,112.00532z M78.35892,76.26453
				c-8.96326,1.99309-17.65143,5.02482-25.9494,9.06152c-6.97299,3.38544-10.58581,7.14703-10.7402,11.18935
				c-0.17404,4.55322,4.51672,8.39341,8.96046,9.34223c5.35887,1.15094,11.26795-0.40423,16.48085-1.76851
				c8.0369-2.10538,16.13837-3.98618,24.24265-5.86697c15.82678-3.67738,32.19254-7.47828,47.67683-12.95224l0,0
				c13.66246-4.82271,20.93582-10.71214,21.61516-17.49985c1.08075-10.79073-14.82182-22.79977-21.0425-26.52207
				c-20.35754-17.54476-45.83533-28.08846-72.14406-29.96365c-2.57417-0.19089-5.26062-0.30317-7.5625,0.51652
				c-1.69833,0.60073-3.52579,2.02677-3.77563,3.85704c-0.28352,2.06607,1.32217,4.44093,4.90692,7.26493
				c10.9367,8.60114,23.23207,15.04639,36.54364,19.15046l-1.3334,5.58064c-24.98374-4.28373-51.27281-3.59878-76.01514,1.99308
				c-3.24789,0.74109-6.65017,1.60008-9.42083,3.28999c-2.72014,1.66184-4.57567,4.10968-4.96587,6.54069
				c-0.64003,4.01986,2.47592,7.81514,5.6424,9.63418c3.9581,2.2738,8.87905,2.81839,13.58386,3.18333
				c17.44651,1.3362,34.98004,0.76916,52.26655-1.68991c4.05916-0.89268,8.17165-1.58886,12.32906-2.0773l0.88425,5.68169
				C86.49688,74.9957,82.43492,75.68065,78.35892,76.26453z"/>
		</g>
		<g>
			<path fill="#EFE1E1" d="M361.58752,116.41257c-4.92657,0-9.71561-1.28007-14.06949-2.44785
				c-7.98077-2.14468-16.02609-4.07039-24.07141-5.9961c-15.95032-3.81213-32.44238-7.759-48.18213-13.42946l0,0
				c-15.91101-5.73784-24.41389-13.31156-25.2757-22.51906c-1.55518-16.60155,22.97382-31.25494,24.01807-31.87251
				C294.60583,22.513,321.34406,11.6549,348.89072,9.86393c3.03174-0.1965,6.54633-0.29756,9.88684,0.89829
				c4.07037,1.47095,7.0123,4.82832,7.49512,8.55061c0.83093,6.33296-5.15958,10.98162-7.12738,12.50871
				c-5.92874,4.60374-12.22519,8.60676-18.84448,11.98097c19.19537-1.10041,38.65463,0.53897,57.25208,4.87323
				c3.70264,0.86461,7.6102,1.89203,11.11917,4.06477c4.18265,2.58259,6.94772,6.44524,7.58212,10.583
				c1.03305,6.76525-3.55386,12.64907-8.55621,15.47869c-5.00519,2.82962-10.66162,3.43597-16.0289,3.81774
				c-9.55557,0.67372-19.14203,0.79723-28.70041,0.34248c1.14529,0.52213,2.2822,1.06672,3.41068,1.62254
				c8.99979,4.44655,13.66528,9.90929,13.86459,16.23663c0.25262,7.92743-6.82141,13.69334-13.60352,15.0913
				C364.94769,116.26659,363.26059,116.41257,361.58752,116.41257z M277.21265,89.12695
				c15.43939,5.5638,31.77426,9.47136,47.57016,13.2498c8.09866,1.93694,16.19733,3.87389,24.22583,6.0354
				c5.21289,1.39235,11.12759,2.9812,16.4668,1.87518c4.45218-0.92075,9.16818-4.73287,9.02502-9.28609
				c-0.12912-4.04231-3.71667-7.83198-10.66721-11.26233c-8.28113-4.08723-16.96088-7.17511-25.9101-9.22995
				c-4.0676-0.60635-8.11832-1.31937-12.15503-2.13345l0.92355-5.67046c4.14618,0.5109,8.24744,1.22954,12.29819,2.15028
				c17.28931,2.58259,34.82846,3.26754,52.27496,2.02677c4.71042-0.33125,9.6398-0.84215,13.60071-3.08788
				c3.18051-1.79659,6.32172-5.5638,5.70697-9.60049c-0.37335-2.43662-2.21487-4.89008-4.92377-6.56314
				c-2.77069-1.71798-6.16455-2.59943-9.40118-3.35175c-24.70303-5.7603-50.98648-6.61929-75.99829-2.49276l-1.29694-5.58625
				c13.32843-4.01424,25.66589-10.37527,36.66718-18.91466c3.60437-2.80155,5.22412-5.16518,4.95462-7.23125
				c-0.23859-1.83027-2.05484-3.26754-3.75037-3.8795c-2.29626-0.83092-4.99393-0.74109-7.5625-0.57266
				c-26.31433,1.70675-51.8595,12.08203-71.92789,29.20571c-6.65018,3.98056-22.63416,15.91099-21.62077,26.68488
				C256.35263,78.28569,263.5867,84.22003,277.21265,89.12695z"/>
		</g>
	</g>
	<path fill="#8B4367" d="M257.59586,17.97978c-6.19962-7.18423-14.51794-12.65714-23.52718-15.59414l11.33182,117.09409
		c4.73181-2.24223,9.10713-5.16238,12.82979-8.89063c10.55457-10.57037,14.88953-26.01853,15.47833-40.94456
		C274.43707,51.1857,269.66489,31.96542,257.59586,17.97978z"/>
	<path fill="#8B4367" d="M139.56909,54.13743c-2.81068,10.76863-2.86998,22.6359,2.06151,32.61361
		c6.34137,12.83049,19.6803,20.5379,32.72273,26.43083c4.55391,2.0573,9.20293,3.97144,13.92352,5.65819L163.19907,18.52964
		C151.89218,27.65888,143.24541,40.05039,139.56909,54.13743z"/>
	<path fill="#FFB118" d="M207.80066,1.71474l1.44008,0.9011c-16.65384-0.70039-33.09679,5.46168-46.04167,15.9138
		l25.07779,100.31042c9.36293,3.34614,19.028,5.73257,28.93236,6.114c9.63278,0.3709,19.53365-1.37165,28.19128-5.47431
		L234.06868,2.38565C225.53983-0.39485,216.39304-0.9075,207.80066,1.71474z"/>
</g>
</svg>
